<?xml version="1.0" standalone="no"?>
<!DOCTYPE svg PUBLIC "-//W3C//DTD SVG 20010904//EN"
 "http://www.w3.org/TR/2001/REC-SVG-20010904/DTD/svg10.dtd">
<svg version="1.0" xmlns="http://www.w3.org/2000/svg"
 width="1080.000000pt" height="1080.000000pt" viewBox="0 0 1080.000000 1080.000000"
 preserveAspectRatio="xMidYMid meet">
<metadata>
Created by potrace 1.14, written by Peter Selinger 2001-2017
</metadata>
<g transform="translate(0.000000,1080.000000) scale(0.100000,-0.100000)"
fill="#000000" stroke="none">
<path d="M4925 8849 c-274 -29 -553 -112 -775 -231 -52 -28 -142 -76 -200
-106 -677 -351 -1094 -1023 -1225 -1975 -9 -66 -14 -121 -11 -124 3 -3 256
-27 563 -53 307 -27 581 -51 610 -54 l52 -6 68 60 c37 33 73 60 80 60 7 0 17
19 23 43 113 433 266 764 441 951 l64 69 67 -6 c178 -15 417 -193 517 -387 60
-115 83 -211 84 -350 1 -192 -55 -363 -174 -535 -73 -105 -220 -242 -311 -290
-40 -21 -91 -50 -113 -65 -22 -14 -84 -48 -137 -73 -229 -111 -349 -323 -409
-722 -10 -62 -14 -190 -13 -415 0 -272 4 -355 23 -510 28 -234 71 -489 119
-700 l37 -165 579 -3 579 -2 102 60 c67 39 112 60 133 60 18 0 32 2 32 5 0 3
-15 42 -34 87 -80 194 -145 462 -167 688 -21 221 7 462 72 631 26 68 36 82 86
119 77 59 200 123 318 165 136 49 207 84 311 154 170 112 346 291 460 466 21
33 70 96 108 140 143 166 286 411 371 635 49 128 100 330 120 475 23 163 16
457 -14 597 -67 307 -200 550 -419 760 -227 217 -493 349 -916 453 -211 52
-314 70 -503 90 -148 16 -466 18 -598 4z"/>
<path d="M5143 3045 c-64 -18 -122 -46 -186 -92 -26 -18 -72 -42 -100 -53 -73
-27 -139 -71 -209 -138 -181 -173 -275 -424 -248 -663 26 -232 132 -406 298
-492 96 -49 153 -62 267 -61 119 1 219 30 330 98 39 24 105 59 147 79 181 84
318 217 407 394 95 189 95 395 0 591 -79 164 -243 295 -421 337 -78 18 -216
18 -285 0z"/>
</g>
</svg>
